<svg width="912" height="999" viewBox="0 0 912 999" fill="none" xmlns="http://www.w3.org/2000/svg">
<path fill-rule="evenodd" clip-rule="evenodd" d="M867.62 294.11L907.45 427.45L808 640.56L617.83 777.97L529.68 754.36L535.04 698.22L583.25 701.48L666 559.18L663.04 365.93L741.81 277.85L867.62 294.11Z" fill="#C23C27"/>
<path fill-rule="evenodd" clip-rule="evenodd" d="M777.307 577.17L618.187 730.06L532.977 731.17L535.417 698.67L585.807 703.43L686.357 557.11L721.897 344.66L848.757 376.61L777.307 577.17Z" fill="#E36337"/>
<path fill-rule="evenodd" clip-rule="evenodd" d="M868.389 293.73L907.849 429.33L904.609 437.01L848.219 376.28L721.829 344.65L663.449 364.55L738.709 279.02L868.389 293.73Z" fill="#401714"/>
<path fill-rule="evenodd" clip-rule="evenodd" d="M775.848 577.609L809.938 638.239L753.038 679.269L720.158 634.729L636.898 610.889L663.288 566.549L686.198 556.469L775.848 577.609Z" fill="#401714"/>
<path fill-rule="evenodd" clip-rule="evenodd" d="M669.477 680.609L689.937 725.149L627.617 769.079L619.677 728.879L583.977 701.259L612.407 653.119L669.477 680.609Z" fill="#401714"/>
<path fill-rule="evenodd" clip-rule="evenodd" d="M582.519 731.24L569.199 763.41L530.129 753.98L533.639 723.68L535.569 697.01L562.189 702.6L582.519 731.24Z" fill="#401714"/>
<path fill-rule="evenodd" clip-rule="evenodd" d="M823.8 441.839L873.81 501.599L845.55 563.529L800.13 511.889L698.85 489.159L667 508.269L667.92 433.229L708.96 416.359L823.8 441.839Z" fill="#401714"/>
<path d="M534.438 694.649L581.068 697.829L660.018 564.539L660.158 363.969L738.278 275.279L871.048 289.719L911.398 430.319L812.278 642.389L617.468 780.869L527.898 757.669L529.858 750.069L615.898 772.349L806.048 637.189L903.038 429.659L864.958 296.959L741.468 283.529L667.998 366.939L667.858 566.689L585.358 705.989L533.908 702.479L534.438 694.649Z" fill="#2E100D"/>
<path fill-rule="evenodd" clip-rule="evenodd" d="M328.582 755.66L348.822 828.69L376.952 870.49L376.172 901.98L328.692 932.17L331.012 967.01L399.912 984.69L460.302 940.69L467.012 893.46L449.462 824.82L451.682 774.63L328.582 755.66Z" fill="#C23C27"/>
<path fill-rule="evenodd" clip-rule="evenodd" d="M332.69 927.65L330.75 966.62L399.4 983.01L459.53 947.14L466.49 895.27L454.11 843.4L432.43 866.62L386.75 831.78L345.46 819.65L376.43 871.01L374.37 902.75L332.69 927.65Z" fill="#771213"/>
<path fill-rule="evenodd" clip-rule="evenodd" d="M374.561 839.14L381.621 777.73L332.461 771.15L345.141 831.01L374.561 839.14Z" fill="#E36337"/>
<path d="M378.181 955.105L377.664 982.26L382.313 982.348L382.83 955.193L378.181 955.105Z" fill="#2E100D"/>
<path d="M352.888 949.443L352.371 976.598L357.02 976.686L357.537 949.531L352.888 949.443Z" fill="#2E100D"/>
<path fill-rule="evenodd" clip-rule="evenodd" d="M466.39 893.081L458.65 861.531L441.81 920.761L399.62 948.241L399.23 984.241L459.81 941.851L466.39 893.081Z" fill="#59171E"/>
<path d="M455.601 774.48L452.871 820.18L469.801 902.15L462.871 945.3L399.121 988.14L326.641 970.43L328.341 926.63L369.081 902.78L370.771 872.98L342.261 822.84L324.031 756.31L331.601 754.24L349.571 819.82L378.741 871.11L376.681 907.43L336.021 931.23L334.731 964.33L397.611 979.69L455.661 940.68L461.821 902.33L444.971 820.75L447.761 774.01L455.601 774.48Z" fill="#2E100D"/>
<path fill-rule="evenodd" clip-rule="evenodd" d="M468.711 765.73L488.951 838.75L517.071 880.56L516.301 912.04L468.821 942.24L471.141 977.07L540.041 994.75L600.431 950.75L607.141 903.531L589.591 834.88L591.811 784.69L468.711 765.73Z" fill="#C23C27"/>
<path fill-rule="evenodd" clip-rule="evenodd" d="M472.823 937.721L470.883 976.691L539.533 993.071L599.663 957.201L606.623 905.331L594.243 853.461L572.563 876.691L526.883 841.851L485.593 829.721L516.563 881.071L514.493 912.821L472.823 937.721Z" fill="#771213"/>
<path fill-rule="evenodd" clip-rule="evenodd" d="M514.692 849.201L521.752 787.791L472.582 781.211L485.272 841.071L514.692 849.201Z" fill="#E36337"/>
<path d="M518.314 965.161L517.797 992.316L522.446 992.405L522.963 965.25L518.314 965.161Z" fill="#2E100D"/>
<path d="M493.013 959.509L492.496 986.664L497.145 986.753L497.662 959.597L493.013 959.509Z" fill="#2E100D"/>
<path fill-rule="evenodd" clip-rule="evenodd" d="M606.519 903.15L598.779 871.6L581.939 930.82L539.749 958.31L539.359 994.31L599.939 951.92L606.519 903.15Z" fill="#59171E"/>
<path d="M595.732 784.541L593.002 830.231L610.322 910.661L603.002 955.371L539.252 998.201L466.772 980.501L468.472 936.691L509.212 912.851L510.902 883.041L482.392 832.911L464.152 766.381L471.722 764.301L489.702 829.881L518.872 881.171L516.812 917.501L476.152 941.291L474.862 974.391L537.742 989.751L595.802 950.741L602.332 910.861L585.102 830.831L587.892 784.071L595.732 784.541Z" fill="#2E100D"/>
<path fill-rule="evenodd" clip-rule="evenodd" d="M299.36 819.792L387.62 850.761L410.84 779.792L429.81 862.761L542.07 849.981L636.71 828.501L615.81 678.691L701.17 660.691L664.58 530.441L632.46 447.982L581.42 402.501L544.78 391.661L400.97 364.181L201.42 259.271L183.23 356.311L168 344.441L167.75 411.401L325.49 498.111L299.36 819.792Z" fill="#3A2A29"/>
<path fill-rule="evenodd" clip-rule="evenodd" d="M547.488 437.731L561.038 411.401L582.328 406.371L635.748 449.731L701.548 659.531L615.618 679.271L641.548 644.821L583.878 466.761L547.488 437.731Z" fill="#302121"/>
<path fill-rule="evenodd" clip-rule="evenodd" d="M574.971 608.441L588.911 683.531L615.231 680.441L634.201 829.081L484.391 855.021L585.041 816.311L592.261 732.051L574.971 608.441Z" fill="#302121"/>
<path fill-rule="evenodd" clip-rule="evenodd" d="M311.359 699.021L320.259 805.851L386.459 849.211L298.199 823.661L311.359 699.021Z" fill="#302121"/>
<path fill-rule="evenodd" clip-rule="evenodd" d="M189.039 329.341L201.999 259.471L373.289 354.691L324.129 417.981L299.749 385.851L214.199 290.241L189.039 329.341Z" fill="#302121"/>
<path fill-rule="evenodd" clip-rule="evenodd" d="M5.16016 367.28L93.2102 223.53L147.57 71.45C167.05 59.16 217.26 66.05 220.94 105.61L128.99 250.76L80.7802 399.51C76.1802 377.45 37.2402 347.4 5.16016 367.28Z" fill="#DDD39E"/>
<path d="M4.54797 366.291C9.09797 363.491 14.148 361.481 19.408 360.451C24.658 359.371 30.098 359.431 35.358 360.241C45.918 361.921 55.728 366.821 63.978 373.441C68.068 376.811 71.858 380.581 74.998 384.891C75.808 385.941 76.518 387.081 77.258 388.191C77.928 389.351 78.628 390.491 79.198 391.711C79.508 392.301 79.798 392.911 80.048 393.541C80.298 394.171 80.598 394.771 80.798 395.421L80.848 395.571L89.338 369.381L127.938 250.271L185.268 159.771L213.898 114.581L217.478 108.931L219.268 106.111L219.718 105.401C219.778 105.301 219.738 105.401 219.738 105.331L219.528 103.761C218.938 99.4608 217.708 95.2508 215.788 91.3808C211.958 83.6108 205.328 77.3808 197.558 73.4608C189.798 69.4908 181.058 67.4308 172.318 67.1308C167.948 67.0108 163.558 67.3408 159.298 68.2208C157.178 68.6908 155.068 69.2408 153.068 70.0508C152.048 70.4108 151.098 70.9008 150.118 71.3508C149.648 71.6008 149.188 71.8808 148.728 72.1408L148.518 72.2608L148.318 72.8208L130.318 123.191L94.268 224.051L6.14797 367.881L4.16797 366.671L92.158 223.031L128.128 122.401L146.128 72.0308L146.488 71.0108C146.548 70.8908 146.558 70.7308 146.658 70.6408L147.018 70.4308L147.538 70.1308C148.048 69.8408 148.548 69.5408 149.058 69.2708C150.108 68.7808 151.138 68.2508 152.228 67.8708C154.368 67.0108 156.588 66.4208 158.818 65.9308C163.288 65.0108 167.848 64.6708 172.388 64.7908C181.448 65.1008 190.498 67.2208 198.618 71.3808C206.738 75.4808 213.788 82.0608 217.858 90.3308C219.908 94.4408 221.208 98.9008 221.818 103.431L222.048 105.181L222.098 105.571C222.098 105.701 222.198 105.861 222.078 105.971L221.658 106.631L221.208 107.341L219.418 110.161L215.838 115.811L187.208 161.001L130.028 251.261L91.518 370.091L80.728 403.391C80.698 403.531 80.678 403.391 80.658 403.331L80.598 403.111L80.468 402.661L80.208 401.771L79.698 399.981L79.568 399.531L79.428 399.001L79.158 397.931C79.068 397.581 78.958 397.311 78.848 396.991L78.578 396.211C78.398 395.611 78.108 395.041 77.878 394.461C77.648 393.881 77.378 393.311 77.078 392.751C76.538 391.611 75.878 390.521 75.238 389.431C74.538 388.371 73.868 387.291 73.088 386.281C70.088 382.161 66.428 378.511 62.478 375.261C54.508 368.871 45.038 364.151 34.958 362.551C29.938 361.781 24.788 361.731 19.818 362.751C14.848 363.731 10.068 365.621 5.73797 368.291L4.51797 366.321L4.54797 366.291Z" fill="#2E100D"/>
<path fill-rule="evenodd" clip-rule="evenodd" d="M126.449 238.962C126.449 238.962 198.949 106.342 208.369 78.6016C215.049 84.8616 219.759 93.4016 220.799 104.522L128.849 249.672L80.6392 398.422C78.9292 390.222 67.2792 377.672 58.1992 370.242C70.7792 348.862 126.449 238.962 126.449 238.962Z" fill="#C9BD8D"/>
<path fill-rule="evenodd" clip-rule="evenodd" d="M183.999 251.73L175.679 245.92L175.289 230.24L151.039 210.74L116.049 246.42L126.159 259.06L112.699 304.24L127.559 310.82L135.609 312.33L145.489 305.15L162.519 324.31L183.999 251.73Z" fill="#771213"/>
<path fill-rule="evenodd" clip-rule="evenodd" d="M350.07 385.471L321.42 419.151L277.68 649.211L305.55 686.891L354.84 656.181L367.88 427.661L391.1 394.761L350.07 385.471Z" fill="#FFBE55"/>
<path fill-rule="evenodd" clip-rule="evenodd" d="M323.098 419.53L367.228 426.5L390.708 393.98L349.938 383.66L323.098 419.53Z" fill="#DDA14A"/>
<path fill-rule="evenodd" clip-rule="evenodd" d="M113.39 220.02C117.99 219.98 127.8 223.24 131 228.34C131 228.34 119.68 240.78 115.79 244.14C111.1 240.41 105.51 239.54 101.43 240.91L113.38 220.02H113.39Z" fill="#FFBE55"/>
<path fill-rule="evenodd" clip-rule="evenodd" d="M71.038 406.75C66.528 417.32 49.858 411.77 30.658 403.59C11.458 395.41 -0.441993 380.19 4.06801 369.62C8.57801 359.05 27.938 356.79 46.998 365.3C63.908 372.86 76.548 390.64 76.548 390.64C76.548 390.64 73.308 401.47 71.048 406.75H71.038Z" fill="#B2A676"/>
<path d="M146.891 304.621L143.848 308.137L164.088 325.657L167.131 322.141L146.891 304.621Z" fill="#2E100D"/>
<path d="M155.1 296.411L136.83 316.761L111.98 306.251L113.8 301.971L135.58 311.191L151.65 293.301L155.1 296.411Z" fill="#2E100D"/>
<path fill-rule="evenodd" clip-rule="evenodd" d="M140.359 262.721L154.529 390.101L138.829 392.001L129.469 266.731L140.359 262.721Z" fill="#FFBE55"/>
<path fill-rule="evenodd" clip-rule="evenodd" d="M128.868 263.491L136.248 362.111L125.568 362.781L119.488 252.621L128.868 263.491Z" fill="#DDA14A"/>
<path fill-rule="evenodd" clip-rule="evenodd" d="M126.8 195.141L91.96 182.951L57 247.581L65.27 270.811L86.01 269.541L126.8 195.141Z" fill="#771213"/>
<path fill-rule="evenodd" clip-rule="evenodd" d="M607.748 704.44L594.328 734.11L605.418 753.73L604.908 773.081L635.548 790.951L689.168 770.82L701.938 729.98L675.618 689.73L607.748 704.44Z" fill="#771213"/>
<path fill-rule="evenodd" clip-rule="evenodd" d="M373.289 419.532L378.329 456.692L405.039 525.602L479.999 442.502L481.549 431.662L506.069 398.372L390.709 393.602L373.289 419.532Z" fill="white"/>
<path fill-rule="evenodd" clip-rule="evenodd" d="M595.098 684.691L600.128 705.211L684.998 687.501L681.038 664.951L595.098 684.691Z" fill="white"/>
<path fill-rule="evenodd" clip-rule="evenodd" d="M159.617 337.661L183.997 355.021L202.837 255.151L186.577 244.441L159.617 337.661Z" fill="white"/>
<path fill-rule="evenodd" clip-rule="evenodd" d="M413.49 399.021L399.55 412.632L406.84 451.021L391.75 493.271L405.62 526.051L425.88 503.151L420.58 452.822L438.58 418.892L426.46 400.892L413.49 399.021Z" fill="#E14226"/>
<path fill-rule="evenodd" clip-rule="evenodd" d="M413.168 398.82L398.578 414.89L438.578 419.92L427.358 400.31L413.168 398.82Z" fill="#C63724"/>
<path fill-rule="evenodd" clip-rule="evenodd" d="M429.809 403.152L438.579 419.532L484.779 428.052L503.359 399.852L450.129 405.082L429.809 403.152Z" fill="#D1C8C7"/>
<path fill-rule="evenodd" clip-rule="evenodd" d="M389.94 396.311L376 415.661L398.07 414.021L414.13 398.631L389.94 396.311Z" fill="#D1C8C7"/>
<path fill-rule="evenodd" clip-rule="evenodd" d="M168.518 343.66L167.488 406.89L178.968 374.82L182.648 352.56L168.518 343.66Z" fill="#261E1E"/>
<path d="M636.561 788.34L639.721 831.64L543.381 851.79L426.741 867.52L410.431 791.95L390.981 855.18L295.141 824.89L309.391 682.75L317.201 683.54L303.581 819.33L385.801 845.31L411.771 760.92L432.881 858.77L542.051 844.05L631.391 825.36L628.731 788.91L636.561 788.34Z" fill="#2E100D"/>
<path d="M166.202 344.208L165.234 410.211L169.884 410.279L170.852 344.276L166.202 344.208Z" fill="#2E100D"/>
<path d="M165.328 409.581L177.358 369.431L198.948 258.061L203.508 258.941L181.878 370.541L169.778 410.911L165.328 409.581Z" fill="#2E100D"/>
<path d="M201.991 256.061L199.699 260.107L256.412 292.233L258.704 288.187L201.991 256.061Z" fill="#2E100D"/>
<path d="M168.661 405.078L165.285 411.176L306.184 489.181L309.559 483.083L168.661 405.078Z" fill="#310401"/>
<path d="M202.278 261.771L187.288 252.631L161.968 336.341L183.488 349.821L181.028 353.761L156.488 338.391L184.588 245.531L204.698 257.811L202.278 261.771Z" fill="#2E100D"/>
<path d="M685.98 663.67L689.99 690.92L599.45 709.7L594.25 687.53L601.04 685.94L604.69 701.5L682.14 685.43L679.09 664.69L685.98 663.67Z" fill="#310401"/>
<path d="M681.21 689.98L704.8 727.951L691.99 772.74L635.44 794.701L602.1 776.831L602.42 756.49L590.16 734.75L604.96 703.151L611.27 706.11L598 734.451L609.42 754.72L609.14 772.69L635.91 787.04L686.24 767.5L697.25 729L675.29 693.66L681.21 689.98Z" fill="#310401"/>
<path d="M629.178 764.51L619.238 740.3L624.298 738.07L629.178 764.51Z" fill="#2E100D"/>
<path d="M154.531 257.111L131.501 269.541L112.801 246.521L148.711 207.881L178.711 230.131L175.991 256.931L171.371 256.461L173.821 232.291L149.291 214.091L118.951 246.731L132.681 263.621L152.331 253.031L154.531 257.111Z" fill="#2E100D"/>
<path d="M177.165 244.559L174.586 248.428L182.715 253.847L185.294 249.978L177.165 244.559Z" fill="#2E100D"/>
<path d="M176.517 330.251C179.085 330.251 181.167 328.169 181.167 325.601C181.167 323.033 179.085 320.951 176.517 320.951C173.949 320.951 171.867 323.033 171.867 325.601C171.867 328.169 173.949 330.251 176.517 330.251Z" fill="#3A2A29"/>
<path d="M666.709 684.7C669.277 684.7 671.359 682.618 671.359 680.05C671.359 677.482 669.277 675.4 666.709 675.4C664.14 675.4 662.059 677.482 662.059 680.05C662.059 682.618 664.14 684.7 666.709 684.7Z" fill="#3A2A29"/>
<path d="M402.329 547.091L369.859 468.001L366.379 434.711L367.369 434.611L370.849 467.831L402.639 545.201L476.819 459.111L477.579 459.761L402.329 547.091Z" fill="#2D1310"/>
<path d="M376.808 419.861L380.998 456.481L406.648 519.021L477.568 438.231L483.468 443.411L404.198 533.721L373.328 458.451L369.008 420.751L376.808 419.861Z" fill="#2E100D"/>
<path d="M410.749 398.548L373.359 436.252L376.661 439.526L414.051 401.822L410.749 398.548Z" fill="#2E100D"/>
<path d="M429.45 400.151L425.512 402.623L462.087 460.884L466.025 458.411L429.45 400.151Z" fill="#2E100D"/>
<path d="M439.131 420.23L421.331 453.85L405.761 451.69L398.641 414.1L400.921 413.66L407.731 449.62L420.041 451.33L437.081 419.14L439.131 420.23Z" fill="#2E100D"/>
<path d="M405.884 450.56L390.914 492.371L393.098 493.153L408.069 451.342L405.884 450.56Z" fill="#2E100D"/>
<path d="M421.467 452.655L419.16 452.9L424.513 503.156L426.82 502.91L421.467 452.655Z" fill="#2E100D"/>
<path d="M392.98 398.121L371.3 428.851L358.48 657.651L304.1 691.851L273.98 649.301L318.17 417.591L347.41 383.211L352.72 387.731L324.67 420.701L281.38 647.701L305.97 682.441L351.72 653.671L364.45 426.471L387.29 394.101L392.98 398.121Z" fill="#310401"/>
<path d="M578.248 604.49L586.358 636.16L591.908 679.51L695.418 655.92L659.358 531.4L629.288 451.84L576.688 406.36L532.508 392.85L535.368 383.5L581.518 397.61L637.558 446.07L668.638 528.31L707.688 663.15L583.578 691.43L576.738 638L568.778 606.91L553.288 526.76L578.248 604.49Z" fill="#310401"/>
<path d="M62.9805 272.43L54.9805 247.45L90.9605 181.07L130.61 193.79L86.7305 272.91L65.3205 274.04L65.0705 269.41L83.9105 268.41L123.81 196.48L93.2005 186.67L60.0105 247.92L67.4005 271.02L62.9805 272.43Z" fill="#2E100D"/>
<path d="M65.2552 231.778L63.6992 236.16L99.4331 248.849L100.989 244.467L65.2552 231.778Z" fill="#2E100D"/>
<path d="M81.3131 204.061L79.8438 208.473L113.743 219.763L115.212 215.351L81.3131 204.061Z" fill="#2E100D"/>
<path d="M63.179 268.33L1.63672 369.549L5.60997 371.965L67.1522 270.745L63.179 268.33Z" fill="#2E100D"/>
<path d="M103.098 186.521C108.038 172.971 113.118 159.471 118.188 145.991C123.258 132.511 128.208 119.001 133.018 105.431L140.158 85.0506L143.678 74.8406L144.558 72.2906C144.878 71.5506 144.928 70.4306 145.908 70.1706L147.458 69.2606C149.138 68.3106 150.888 67.5106 152.668 66.8306C159.828 64.1506 167.448 63.4006 174.898 63.8506C182.368 64.3006 189.728 66.1306 196.578 69.1806C203.428 72.2206 209.748 76.7506 214.548 82.7006C216.938 85.6706 218.938 88.9906 220.388 92.5406C221.818 96.1006 222.688 99.8606 223.078 103.651L223.198 105.071L223.278 106.121L223.338 106.791C223.298 107.001 223.118 107.181 223.018 107.371L221.318 110.051L218.418 114.611L212.618 123.731L201.018 141.971L154.598 214.911L150.678 212.421L197.098 139.481L208.698 121.241L214.498 112.121L217.398 107.561L218.598 105.681L218.468 104.111C218.118 100.741 217.348 97.4206 216.098 94.2906C214.828 91.1606 213.068 88.2506 210.948 85.6106C206.688 80.3406 200.988 76.2106 194.688 73.4106C188.388 70.6006 181.538 68.9006 174.618 68.4806C167.718 68.0606 160.688 68.7806 154.328 71.1706C152.748 71.7706 151.208 72.4706 149.758 73.3006L148.978 73.7506C148.978 73.7506 148.978 73.7206 148.958 73.7906L148.078 76.3506L144.558 86.5706L137.408 106.991C132.598 120.591 127.618 134.131 122.548 147.631C117.478 161.131 112.408 174.601 107.478 188.121L103.118 186.531L103.098 186.521Z" fill="#2E100D"/>
<path d="M118.592 275.816L78.9297 403.707L83.371 405.084L123.033 277.193L118.592 275.816Z" fill="#2E100D"/>
<path d="M78.479 404.97C78.349 402.89 77.759 400.68 77.059 398.54C76.679 397.47 76.299 396.39 75.819 395.35C75.399 394.29 74.859 393.26 74.349 392.24C72.229 388.15 69.569 384.31 66.469 380.9C63.369 377.48 59.809 374.5 55.889 372.1C53.919 370.93 51.909 369.82 49.779 368.96L48.199 368.28L46.549 367.67C45.439 367.29 44.339 366.91 43.219 366.57C38.749 365.2 34.159 364.23 29.539 363.79C24.939 363.37 20.269 363.45 15.939 364.49C13.779 365.01 11.729 365.79 9.98903 366.9C8.27903 368.03 6.88903 369.46 6.20903 371.2C5.50903 372.86 5.50903 374.83 6.01903 376.84C6.51903 378.85 7.48903 380.85 8.66903 382.74C11.049 386.54 14.279 389.93 17.799 392.94C21.329 395.95 25.229 398.57 29.319 400.8C33.429 403.03 37.709 404.88 42.179 406.18C46.659 407.5 51.299 408.48 55.909 408.99C58.209 409.24 60.519 409.36 62.699 409.2C63.779 409.12 64.829 408.96 65.669 408.67C66.079 408.53 66.449 408.36 66.639 408.2C66.839 408.04 66.869 407.97 66.889 407.92C66.909 407.87 66.929 407.71 66.859 407.41C66.769 407.1 66.619 406.72 66.389 406.32C65.939 405.51 65.269 404.66 64.539 403.84C63.069 402.2 61.309 400.66 59.509 399.18C55.879 396.23 51.949 393.52 47.959 390.92C43.959 388.32 39.869 385.83 35.739 383.4L38.089 379.39C42.269 381.84 46.409 384.37 50.489 387.02C54.569 389.68 58.589 392.45 62.439 395.58C64.359 397.16 66.249 398.79 67.989 400.74C68.859 401.72 69.709 402.76 70.439 404.05C70.799 404.69 71.129 405.42 71.359 406.28C71.569 407.15 71.659 408.23 71.299 409.33C70.949 410.44 70.179 411.34 69.419 411.9C68.649 412.48 67.899 412.79 67.169 413.05C65.719 413.54 64.369 413.72 63.049 413.82C60.419 414.01 57.899 413.86 55.409 413.6C50.439 413.05 45.609 412.02 40.849 410.63C36.059 409.23 31.449 407.24 27.089 404.87C22.719 402.5 18.579 399.71 14.779 396.47C10.989 393.22 7.46903 389.57 4.71903 385.19C3.35903 383 2.17903 380.62 1.49903 377.95C1.17903 376.61 0.949026 375.22 0.999026 373.75C1.03903 372.3 1.32903 370.79 1.90903 369.4C3.00903 366.62 5.16903 364.47 7.46903 362.97C9.79903 361.49 12.319 360.56 14.839 359.95C19.899 358.74 24.999 358.69 29.979 359.14C34.959 359.61 39.839 360.66 44.579 362.1C45.769 362.46 46.939 362.86 48.109 363.27L49.849 363.91L51.589 364.66C53.939 365.61 56.159 366.83 58.319 368.12C62.629 370.76 66.519 374.03 69.889 377.75C73.269 381.47 76.149 385.61 78.459 390.08C79.019 391.2 79.609 392.32 80.079 393.49C80.599 394.64 81.029 395.83 81.449 397.03C82.239 399.46 82.919 401.93 83.109 404.68L78.469 404.95L78.479 404.97Z" fill="#2E100D"/>
<path d="M45.1675 364.256L35.1016 383.355L39.2152 385.523L49.2812 366.424L45.1675 364.256Z" fill="#2E100D"/>
<path d="M122.998 237.041C121.518 234.761 118.858 233.161 116.128 232.201C114.748 231.721 113.308 231.391 111.868 231.271C110.448 231.151 108.988 231.251 107.838 231.721L106.898 229.591C108.648 228.881 110.388 228.831 112.048 228.951C113.718 229.091 115.328 229.461 116.878 230.001C118.428 230.541 119.928 231.261 121.318 232.191C122.698 233.121 123.988 234.291 124.948 235.781L122.988 237.031L122.998 237.041Z" fill="#2E100D"/>
<path d="M116.278 248.141C115.688 247.171 114.698 246.251 113.548 245.491C112.388 244.731 111.078 244.101 109.708 243.631C108.348 243.151 106.918 242.821 105.518 242.671C104.148 242.521 102.718 242.611 101.848 242.941L100.078 238.651C102.248 237.841 104.158 237.891 105.988 238.051C107.818 238.241 109.558 238.661 111.248 239.251C112.938 239.841 114.568 240.611 116.118 241.631C117.648 242.661 119.138 243.951 120.248 245.751L116.268 248.151L116.278 248.141Z" fill="#2E100D"/>
<path d="M129.021 229.381C128.501 228.531 127.221 227.471 125.871 226.651C124.501 225.811 122.991 225.071 121.441 224.451C119.881 223.841 118.281 223.321 116.691 222.961C115.901 222.781 115.101 222.641 114.351 222.581C113.581 222.481 112.911 222.551 112.461 222.621L111.301 218.121C111.921 218.011 112.611 217.881 113.131 217.901C113.411 217.901 113.701 217.881 113.971 217.901L114.751 217.961C115.791 218.051 116.751 218.221 117.701 218.431C119.591 218.861 121.401 219.441 123.161 220.141C124.931 220.841 126.641 221.671 128.321 222.701C128.741 222.941 129.151 223.231 129.561 223.521C129.971 223.791 130.381 224.121 130.781 224.471C131.581 225.131 132.371 225.991 133.061 227.071L129.021 229.371V229.381Z" fill="#2E100D"/>
<path d="M135.44 364.361L122.36 365.191L117.09 251.501L121.73 251.291L126.78 360.261L135.15 359.731L135.44 364.361Z" fill="#2E100D"/>
<path d="M142.187 263.01L156.437 392.41L136.797 394.79L126.617 264.21L131.247 263.85L141.047 389.6L151.317 388.36L137.567 263.52L142.187 263.01Z" fill="#2E100D"/>
<path d="M74.2566 390.82L65.9492 409.287L70.1899 411.195L78.4973 392.727L74.2566 390.82Z" fill="#2E100D"/>
<path fill-rule="evenodd" clip-rule="evenodd" d="M437.937 648.471C435.867 682.831 453.017 810.291 462.447 832.661C466.607 803.521 447.997 672.691 437.937 648.471Z" fill="#2D1F1F"/>
<path fill-rule="evenodd" clip-rule="evenodd" d="M487.629 639.961C487.049 674.791 507.659 803.801 517.169 826.381C519.869 796.821 497.789 664.411 487.629 639.961Z" fill="#2D1F1F"/>
<path fill-rule="evenodd" clip-rule="evenodd" d="M532.688 632.42C533.107 666.84 559.387 792.73 570.407 814.36C572.447 784.99 544.467 655.85 532.688 632.42Z" fill="#2D1F1F"/>
<path fill-rule="evenodd" clip-rule="evenodd" d="M369.93 634.291C359.99 667.251 347.26 795.221 351.27 819.161C362.04 791.761 374.13 660.171 369.93 634.291Z" fill="#2D1F1F"/>
<path fill-rule="evenodd" clip-rule="evenodd" d="M502.389 403.27L482.329 431.92L451.879 659.34L490.839 696.44L534.199 666.24L543.749 443.53L558.459 414.11L580.129 405.08L541.489 391.08L502.389 403.27Z" fill="#FFBE55"/>
<path fill-rule="evenodd" clip-rule="evenodd" d="M483.617 434.242L545.547 440.052L557.677 415.402L580.907 403.272L547.097 389.602L503.487 403.022L483.617 434.242Z" fill="#DDA14A"/>
<path d="M583.108 406.191L564.648 414.511L548.988 441.461L537.588 667.851L490.628 701.001L447.988 660.051L478.728 430.331L501.498 398.721L507.148 402.791L485.408 432.991L455.368 657.471L491.308 692.001L530.798 664.121L542.118 439.421L559.748 409.071L580.248 399.841L583.108 406.191Z" fill="#310401"/>
<path d="M506.609 635.84C505.979 634.39 505.429 632.91 504.939 631.41C507.279 630.62 509.399 629.37 511.229 627.71C514.049 625.35 515.699 621.82 516.089 617.13C516.549 611.69 515.139 607.31 511.839 603.97C508.499 600.65 504.069 598.64 499.399 598.36L476.609 596.43L472.199 648.47L483.289 649.41L484.869 630.73L489.099 631.09L491.679 631.25C492.439 633.68 494.139 638.98 495.159 641.81L506.599 635.84H506.609ZM486.829 607.77L497.049 608.64C502.179 609.07 504.549 611.38 504.219 615.52C503.839 619.98 500.789 621.97 495.079 621.48L485.729 620.69L486.829 607.78V607.77Z" fill="#E14226"/>
<path d="M517.237 648.401L514.497 646.111L501.867 653.001L505.937 654.981L513.267 655.521L518.897 652.141L517.237 648.401Z" fill="#E14226"/>
<path d="M508.17 639.01L496.43 645.1L499.14 650.29L511.65 643.8L508.17 639.01Z" fill="#E14226"/>
<path fill-rule="evenodd" clip-rule="evenodd" d="M403.349 108.28L504.159 116.6L597.039 82.3703L617.549 100.95V165.6L656.669 200.79L647.729 218.98L656.989 214.83L663.999 255.35L627.389 287.08L655.769 341.37L630.079 334.29L642.539 369.4L520.919 401.57L450.039 407.25L362.049 394.35L243.529 352.64L258.879 318.7L232.699 323.6L280.049 248.17L260.109 228.34L265.369 190.43L275.259 196.97L267.769 179.42L297.809 147.02L305.549 89.7303L311.149 64.5703L403.349 108.28Z" fill="#2E100D"/>
<path fill-rule="evenodd" clip-rule="evenodd" d="M392.4 116.041L318.2 76.0508L315.1 90.5008L305.29 153.471L275.63 181.931L296.37 228.331L272.9 204.421L268.73 227.801L301.23 257.271L342.85 168.151L392.4 116.041Z" fill="#FDE6D5"/>
<path fill-rule="evenodd" clip-rule="evenodd" d="M542.599 132.92C648.599 16.4903 614.679 296.85 613.169 282.84L609.229 283.74L606.939 280.41C581.219 243.01 513.879 170.04 542.589 132.92" fill="#2E100D"/>
<path fill-rule="evenodd" clip-rule="evenodd" d="M502.899 126.471L534.329 133.561L566.479 194.501L580.779 180.591L576.629 205.041L598.979 211.971L579.849 220.091L634.869 325.351L613.109 319.361L628.609 363.041L521.699 393.271L441.569 395.881L361.939 386.561L257.939 347.471L277.039 305.251L254.859 309.401L342.849 144.961L362.199 130.821L395.489 117.211L502.899 126.471Z" fill="#CA3C27"/>
<path fill-rule="evenodd" clip-rule="evenodd" d="M359.929 300.441L328.019 274.721L334.479 232.801L305.359 320.051L338.139 377.611L361.939 386.561L450.999 400.511L521.699 393.261L564.169 331.391L536.989 247.221L511.569 298.271L484.569 312.641L456.559 314.091L433.649 293.501L359.929 300.441Z" fill="#771213"/>
<path fill-rule="evenodd" clip-rule="evenodd" d="M567.1 193.9L580.78 180.59L576.63 205.04L598.98 211.97L579.85 220.09L634.87 325.35L613.11 319.36L628.61 363.04L579.68 376.87L612.81 351.49L560.16 182.36L567.1 193.9Z" fill="#EB6337"/>
<path fill-rule="evenodd" clip-rule="evenodd" d="M423.798 284.36L457.358 312.08L483.588 312.47L497.478 343.92L461.248 394.03L449.748 400.31L391.918 391.12L341.078 349.43L340.008 314.36L358.958 300.33L390.988 282.98L423.798 284.36Z" fill="#FDE6D5"/>
<path fill-rule="evenodd" clip-rule="evenodd" d="M424.71 374.8L461.13 335.55L497.48 343.92L461.25 394.03L449.75 400.31L391.92 391.12L341.08 349.43L340.41 327.53L341.71 327.01L347.02 337.9L349.12 345.67L376.57 371.23L424.71 374.8Z" fill="#EEBC92"/>
<path fill-rule="evenodd" clip-rule="evenodd" d="M433.801 229.14L436.341 179.4L465.291 184.7L463.261 222.17L433.801 229.14Z" fill="#EEBC92"/>
<path fill-rule="evenodd" clip-rule="evenodd" d="M494.87 209.511L479.26 192.711L476.41 227.561L490.2 226.801L494.87 209.511Z" fill="#EEBC92"/>
<path fill-rule="evenodd" clip-rule="evenodd" d="M537.348 159.96L534.328 133.56L593.938 93.5996L609.038 106.37L608.648 171.4L645.948 204.47L625.218 250.87L648.688 226.97L652.848 250.35L620.348 279.82L589.778 239.08L617.068 216.76L596.688 188.99L605.938 131.92L560.158 182.36L537.348 159.96Z" fill="#FDE6D5"/>
<path fill-rule="evenodd" clip-rule="evenodd" d="M605.42 132.441L560.16 182.361L537.66 159.961L560.31 164.431L605.41 132.441H605.42ZM620.35 279.821L589.78 239.091L614.84 213.731L593.55 189.211L605.55 132.051L606.94 184.001L626.45 208.171L608.26 239.911L620.35 279.811V279.821Z" fill="#EEBC92"/>
<path fill-rule="evenodd" clip-rule="evenodd" d="M352.517 138.05L342.948 145.28L308.707 114.97L352.517 138.05ZM305.297 201.01L291.688 181.55L317.737 161.98L308.487 114.66L322.207 162.51L307.217 185.27L314.237 203.35L291.747 239.62L305.297 201.01Z" fill="#EEBC92"/>
<path fill-rule="evenodd" clip-rule="evenodd" d="M534.328 133.559L502.898 126.469L595.098 92.4395L534.328 133.559Z" fill="#771213"/>
<path fill-rule="evenodd" clip-rule="evenodd" d="M380.008 292.199L351.168 281.839L345.898 274.699L361.878 256.859L379.778 262.279L389.358 284.619L380.008 292.199Z" fill="#2E100D"/>
<path fill-rule="evenodd" clip-rule="evenodd" d="M365.18 263.131L378.76 266.671L384.43 283.221L376.48 290.941L357.74 284.201L354.93 274.451L365.18 263.131Z" fill="#771213"/>
<path fill-rule="evenodd" clip-rule="evenodd" d="M366.88 266.91L377.46 270.07L380.43 280.22L372.6 287.51L361.88 283.73L359.16 274.66L366.88 266.91Z" fill="#2E100D"/>
<path fill-rule="evenodd" clip-rule="evenodd" d="M372.28 266.301L377.8 267.821L379.5 273.981L375.05 278.131L369.23 276.631L367.41 270.821L372.28 266.301Z" fill="#FDE6D5"/>
<path fill-rule="evenodd" clip-rule="evenodd" d="M379.787 262.139L388.367 285.609L395.067 278.379L386.947 255.129L357.457 246.439L337.777 266.989L345.897 274.699L360.757 258.119L379.787 262.139Z" fill="#FDE6D5"/>
<path fill-rule="evenodd" clip-rule="evenodd" d="M484.911 280.451L464.601 262.141L443.901 268.141L432.641 290.601L449.701 297.321L480.881 285.191L484.911 280.451Z" fill="#2E100D"/>
<path fill-rule="evenodd" clip-rule="evenodd" d="M559.179 338.661L521.699 393.271L579.679 376.871L596.349 335.401L580.439 315.781L596.129 316.171L536.979 247.211L559.179 338.661Z" fill="#FDE6D5"/>
<path fill-rule="evenodd" clip-rule="evenodd" d="M423.808 284.36V263.44L402.488 261.83L390.988 282.98L423.808 284.36Z" fill="#EB6337"/>
<path fill-rule="evenodd" clip-rule="evenodd" d="M462.928 266.721L446.068 271.711L441.418 287.131L452.018 296.421L471.838 288.681L475.738 278.841L462.928 266.721Z" fill="#771213"/>
<path fill-rule="evenodd" clip-rule="evenodd" d="M461.4 270.32L450.31 273.39L447.16 284.63L456.11 291.67L466.34 288.12L469.61 278.03L461.4 270.32Z" fill="#2E100D"/>
<path fill-rule="evenodd" clip-rule="evenodd" d="M462.279 268.59L456.599 270.32L454.859 276.48L459.639 280.66L465.819 279.18L467.699 273.38L462.279 268.59Z" fill="#FDE6D5"/>
<path fill-rule="evenodd" clip-rule="evenodd" d="M423.559 163.701L495.829 126.041L400.379 117.631L423.559 163.701Z" fill="#EB6337"/>
<path fill-rule="evenodd" clip-rule="evenodd" d="M521.699 393.271L535.589 373.031L569.539 359.581L582.809 335.611L580.439 315.781L596.349 335.401L579.679 376.871L521.699 393.271Z" fill="#EEBC92"/>
<path fill-rule="evenodd" clip-rule="evenodd" d="M465.591 184.25L435.881 179.25L433.711 223.09L449.091 217.69L465.591 184.25Z" fill="#FDE6D5"/>
<path fill-rule="evenodd" clip-rule="evenodd" d="M494.94 209.301L479 192.811L483.44 221.231L494.94 209.301Z" fill="#FDE6D5"/>
<path fill-rule="evenodd" clip-rule="evenodd" d="M341.989 145.82L254.859 309.4L277.039 305.25L257.939 347.47L305.539 365.36L274.659 337.29L341.989 145.82Z" fill="#EB6337"/>
<path fill-rule="evenodd" clip-rule="evenodd" d="M395.881 228.18L399.961 182.28L374.191 179.85L368.551 215.17L395.881 228.18Z" fill="#EEBC92"/>
<path fill-rule="evenodd" clip-rule="evenodd" d="M345.25 199.761L364.05 186.621L354.65 221.581L341.32 217.941L345.25 199.761Z" fill="#EEBC92"/>
<path fill-rule="evenodd" clip-rule="evenodd" d="M361.991 131.141L396.551 117.001L318.711 76.5605L361.991 131.141Z" fill="#771213"/>
<path fill-rule="evenodd" clip-rule="evenodd" d="M305.36 320.051L338.14 377.611L291.65 357.911L275.94 307.691L286.1 295.471L270.43 294.551L335.15 230.791L305.36 320.051Z" fill="#FDE6D5"/>
<path fill-rule="evenodd" clip-rule="evenodd" d="M338.138 377.611L325.997 356.281L300.867 343.801L288.397 309.491L286.098 295.471L275.938 307.691L292.438 360.441L338.138 377.611Z" fill="#EEBC92"/>
<path fill-rule="evenodd" clip-rule="evenodd" d="M374.188 179.401L402.228 178.641L397.237 222.291L383.337 213.771L374.188 179.401Z" fill="#FDE6D5"/>
<path fill-rule="evenodd" clip-rule="evenodd" d="M344.949 200.06L363.739 186.92L353.959 213.96L344.949 200.06Z" fill="#FDE6D5"/>
<path fill-rule="evenodd" clip-rule="evenodd" d="M442.979 269.99L432.219 291.45L424.219 284.86L437.779 260.92L465.269 251.26L493.469 272.77L484.909 280.45L464.599 262.14L442.979 269.99Z" fill="#FDE6D5"/>
<path fill-rule="evenodd" clip-rule="evenodd" d="M382.568 297.52L404.298 294.68L421.598 284.27L390.988 282.98L361.148 292.87L382.568 297.52Z" fill="#EEBC92"/>
<path fill-rule="evenodd" clip-rule="evenodd" d="M382.601 296.861L404.311 294.681L406.951 300.511L385.551 317.441L384.771 330.901L415.441 340.441L451.421 331.261L455.591 321.851L459.121 322.721L461.131 335.551L453.041 335.751L413.301 348.531L380.811 338.311L357.021 342.411L352.071 336.851L347.021 337.901L341.711 327.011L345.141 324.211L354.801 334.981L377.551 330.801L377.931 317.121L358.031 298.461L361.151 292.871L382.601 296.861Z" fill="#2E100D"/>
<path fill-rule="evenodd" clip-rule="evenodd" d="M442.84 300.08C449.77 302.23 483.67 312.58 483.67 312.58L457.92 312.49L442.85 300.08H442.84Z" fill="#EEBC92"/>
<path fill-rule="evenodd" clip-rule="evenodd" d="M312.32 201.961L305.52 184.951L321.68 161.871L309.94 116.051L342.85 145.181L312.32 201.961Z" fill="#2E100D"/>
<path d="M383.1 362.381L402.13 364.761L401.52 369.681L382.5 367.301L383.1 362.381Z" fill="#2E100D"/>
<path d="M365.289 338.241L376.259 354.371L411.229 360.111L427.229 341.851L415.619 344.051L380.389 334.631L365.289 338.241Z" fill="#2E100D"/>
<path d="M527.699 209.07L425.369 206.11L424.219 249.08L398.959 247.73L402.289 205.3L315.109 194.6L303.609 292.33L359.639 299.79L361.359 292.52L367.629 290.6L316.759 281.44L325.179 208.35L389.359 215.56L383.399 285.55L391.379 283.12L396.129 273.52L398.559 259.68L423.719 261.7L424.119 303.77L523.309 308.59L527.709 209.05L527.699 209.07ZM512.439 297.6L435.529 294.37L437.349 219.79L515.469 221.1L512.439 297.6Z" fill="#2E100D"/>
<path fill-rule="evenodd" clip-rule="evenodd" d="M616.248 147.89C616.248 147.89 573.438 187.3 439.568 182.01C338.048 177.99 296.668 139.84 296.668 139.84V65.6699H616.248V147.89Z" fill="#3A2A29"/>
<path fill-rule="evenodd" clip-rule="evenodd" d="M616.499 146.6C604.819 157.47 566.579 171.08 532.079 177.47C531.949 158.5 531.699 134.5 531.309 113.73C562.229 106.12 617.809 95.4102 617.809 95.4102L616.489 146.61L616.499 146.6Z" fill="#302121"/>
<path fill-rule="evenodd" clip-rule="evenodd" d="M463.697 5.7793L226.367 60.7493L226.577 66.3593L444.597 129.529L697.037 79.2893V73.8993L463.697 5.7793Z" fill="#302121"/>
<path d="M461.25 63.4195C469.672 63.4195 476.5 60.0661 476.5 55.9295C476.5 51.7928 469.672 48.4395 461.25 48.4395C452.828 48.4395 446 51.7928 446 55.9295C446 60.0661 452.828 63.4195 461.25 63.4195Z" fill="#AA8549"/>
<path d="M461.65 60.0294C466.941 60.0294 471.23 57.9206 471.23 55.3194C471.23 52.7181 466.941 50.6094 461.65 50.6094C456.359 50.6094 452.07 52.7181 452.07 55.3194C452.07 57.9206 456.359 60.0294 461.65 60.0294Z" fill="#3A2A29"/>
<path d="M654.338 176.419C662.175 176.419 668.528 170.066 668.528 162.229C668.528 154.392 662.175 148.039 654.338 148.039C646.502 148.039 640.148 154.392 640.148 162.229C640.148 170.066 646.502 176.419 654.338 176.419Z" fill="#AA8549"/>
<path fill-rule="evenodd" clip-rule="evenodd" d="M654.46 173.391C654.46 173.391 618.47 229.381 653.9 286.371C653.9 286.371 694.63 244.761 654.46 173.391Z" fill="#AA8549"/>
<path fill-rule="evenodd" clip-rule="evenodd" d="M445.678 122.629L225.618 58.3691L225.418 70.3691L445.098 133.469L445.678 122.629Z" fill="#54403F"/>
<path d="M662.451 175.4H647.991C646.14 175.4 644.641 176.9 644.641 178.75V178.76C644.641 180.611 646.14 182.11 647.991 182.11H662.451C664.301 182.11 665.801 180.611 665.801 178.76V178.75C665.801 176.9 664.301 175.4 662.451 175.4Z" fill="#AA8549"/>
<path d="M692.269 85.52L692.119 73.27L466.159 8.1L230.079 60.56L229.969 68.2L446.959 130.66L444.789 138.21L222.039 74.09L222.319 54.25L466.409 0L699.889 67.34L700.119 85.42L692.269 85.52Z" fill="#2E100D"/>
<path d="M302.65 89.7305V137.5L302.92 137.72C303.12 137.89 303.34 138.05 303.55 138.21L304.84 139.18C311.84 144.32 319.65 148.66 327.63 152.51L333.68 155.31L339.86 157.83L342.95 159.08L346.1 160.2L352.4 162.44C354.52 163.15 356.67 163.75 358.8 164.41C360.94 165.04 363.06 165.74 365.22 166.32C369.56 167.4 373.88 168.55 378.24 169.56L391.4 172.23L404.68 174.29C406.89 174.68 409.13 174.86 411.35 175.11L418.04 175.83C420.27 176.05 422.49 176.36 424.73 176.5L431.45 176.92L438.17 177.34L441.53 177.55L444.91 177.63L458.42 177.91L465.18 178.05C467.43 178.05 469.68 177.97 471.93 177.94L485.43 177.67C487.68 177.67 489.92 177.46 492.17 177.34L498.9 176.92L505.63 176.5L507.31 176.4L508.98 176.22L512.33 175.86C516.79 175.38 521.26 174.94 525.72 174.42L539.02 172.39C547.84 170.83 556.62 169.04 565.24 166.73C566.32 166.45 567.41 166.21 568.48 165.89L571.68 164.91L578.07 162.95C580.19 162.28 582.25 161.46 584.35 160.72C586.44 159.96 588.54 159.23 590.56 158.33C598.75 155.02 606.76 151.01 613.67 146.04C613.9 145.89 614.08 145.73 614.29 145.57L614.43 145.46L614.47 143.42L614.61 136.62L614.89 123.02L615.45 95.8205L623.3 95.9805L622.74 123.18L622.46 136.78L622.32 143.58L622.28 145.28L622.25 146.64C622.25 147.21 622.22 147.77 622.19 148.33L622.15 149.17C622.04 149.4 621.75 149.55 621.56 149.75L620.29 150.85L619.09 151.79C618.84 151.98 618.6 152.19 618.35 152.35C610.51 157.96 602.16 162.09 593.56 165.58C591.44 166.53 589.25 167.29 587.08 168.08C584.9 168.85 582.75 169.7 580.55 170.4L573.94 172.43L570.63 173.44C569.53 173.77 568.4 174.02 567.29 174.31C558.39 176.7 549.39 178.53 540.36 180.13L526.76 182.2C522.21 182.73 517.66 183.18 513.11 183.67L509.7 184.03L507.99 184.21L506.28 184.32L499.44 184.74L492.6 185.16C490.32 185.28 488.04 185.49 485.75 185.5L472.05 185.77C469.77 185.81 467.48 185.88 465.2 185.88L458.36 185.74L444.67 185.46L441.25 185.38L437.82 185.17L430.97 184.75L424.12 184.32C421.84 184.18 419.56 183.86 417.28 183.64L410.45 182.9C408.17 182.64 405.89 182.46 403.63 182.06L390.03 179.95L376.53 177.21C372.06 176.17 367.61 174.98 363.15 173.88C360.93 173.28 358.74 172.56 356.54 171.91C354.34 171.23 352.13 170.6 349.94 169.88C332.51 163.93 315.46 156.52 300.16 145.47L298.74 144.39C298.5 144.21 298.27 144.03 298.03 143.84L296.98 142.98C296.53 142.62 296.13 142.24 295.7 141.87C295.31 141.48 294.68 141.2 294.85 140.56C294.85 140 294.82 139.44 294.82 138.87V89.7305H302.67H302.65Z" fill="#2E100D"/>
<path d="M696.433 78.1701L444.465 130.029L446.047 137.718L698.016 85.8589L696.433 78.1701Z" fill="#2E100D"/>
<path d="M651.878 154.24L652.778 83.1502L472.648 58.2402L473.548 54.2402L658.328 79.6602L657.418 154.24H651.878Z" fill="#AA8549"/>
</svg>
